<?xml version="1.0" encoding="UTF-8"?>
<svg xmlns="http://www.w3.org/2000/svg" xmlns:xlink="http://www.w3.org/1999/xlink" width="40px" height="40px" viewBox="0 0 40 40" version="1.1">
<g id="surface1">
<path style=" stroke:none;fill-rule:nonzero;fill:rgb(0%,0%,0%);fill-opacity:1;" d="M 18.085938 0.0859375 C 11.835938 0.734375 6.359375 4.132812 3.03125 9.429688 C 0.304688 13.765625 -0.609375 18.976562 0.4375 24.140625 C 1.039062 27.0625 2.453125 30.070312 4.375 32.476562 C 6.53125 35.171875 9.515625 37.367188 12.765625 38.632812 C 13.867188 39.070312 14.320312 39.101562 14.6875 38.765625 C 14.828125 38.648438 14.953125 38.4375 14.984375 38.28125 C 15.023438 38.132812 15.03125 37.171875 15.015625 36.148438 C 14.984375 34.289062 14.984375 34.28125 14.8125 34.328125 C 14.320312 34.460938 13.21875 34.546875 12.5 34.507812 C 11.046875 34.429688 10.101562 34.0625 9.210938 33.226562 C 8.734375 32.773438 8.617188 32.601562 8.125 31.609375 C 7.515625 30.375 6.9375 29.601562 6.289062 29.164062 C 5.65625 28.734375 5.296875 28.367188 5.328125 28.179688 C 5.367188 27.914062 5.671875 27.804688 6.289062 27.835938 C 7.390625 27.898438 8.460938 28.648438 9.320312 29.945312 C 10.320312 31.460938 11.492188 32.101562 13.085938 32.007812 C 13.546875 31.984375 14.007812 31.890625 14.429688 31.757812 L 15.0625 31.546875 L 15.195312 30.96875 C 15.34375 30.296875 15.671875 29.617188 16.046875 29.171875 L 16.320312 28.851562 L 15.28125 28.6875 C 9.851562 27.796875 7.257812 24.703125 7.265625 19.117188 C 7.265625 17.84375 7.414062 16.96875 7.804688 15.960938 C 8.0625 15.296875 8.679688 14.28125 9.0625 13.867188 L 9.289062 13.632812 L 9.132812 13.085938 C 8.929688 12.398438 8.859375 11.023438 8.976562 10.234375 C 9.023438 9.914062 9.15625 9.34375 9.273438 8.960938 L 9.476562 8.28125 L 10 8.28125 C 11.0625 8.28125 12.453125 8.789062 14.085938 9.78125 L 15.007812 10.335938 L 15.726562 10.164062 C 16.9375 9.882812 17.945312 9.757812 19.414062 9.710938 C 21.070312 9.65625 22.1875 9.75 23.875 10.085938 L 25.046875 10.320312 L 25.75 9.882812 C 26.625 9.328125 27.671875 8.820312 28.476562 8.546875 C 28.945312 8.390625 29.273438 8.335938 29.804688 8.328125 L 30.507812 8.320312 L 30.6875 8.820312 C 31.132812 10.0625 31.210938 11.914062 30.867188 13.085938 L 30.710938 13.632812 L 30.9375 13.867188 C 31.320312 14.28125 31.9375 15.296875 32.195312 15.960938 C 32.578125 16.960938 32.734375 17.84375 32.734375 19.078125 C 32.734375 22.835938 31.53125 25.546875 29.171875 27.085938 C 27.820312 27.960938 26.460938 28.40625 23.960938 28.789062 L 23.664062 28.835938 L 23.945312 29.164062 C 24.289062 29.5625 24.640625 30.273438 24.820312 30.945312 C 24.9375 31.375 24.953125 31.898438 24.96875 34.726562 C 24.984375 36.53125 24.992188 38.109375 24.992188 38.226562 C 25 38.375 25.09375 38.546875 25.265625 38.71875 C 25.5 38.953125 25.578125 38.984375 25.921875 38.984375 C 26.78125 38.984375 29.3125 37.835938 31.109375 36.625 C 33.25 35.1875 35.3125 33.109375 36.742188 30.9375 C 37.40625 29.921875 38.492188 27.734375 38.867188 26.640625 C 40.945312 20.601562 40.125 14.140625 36.601562 8.867188 C 35.875 7.78125 35.210938 6.976562 34.15625 5.90625 C 31.085938 2.796875 27.195312 0.84375 22.773438 0.1875 C 21.8125 0.046875 19.039062 -0.015625 18.085938 0.0859375 Z M 18.085938 0.0859375 "/>
</g>
</svg>
