<?xml version="1.0" encoding="UTF-8"?>
<svg xmlns="http://www.w3.org/2000/svg" xmlns:xlink="http://www.w3.org/1999/xlink" width="40px" height="40px" viewBox="0 0 40 40" version="1.1">
<g id="surface1">
<path style=" stroke:none;fill-rule:nonzero;fill:rgb(87.843137%,87.843137%,87.843137%);fill-opacity:1;" d="M 4.582031 33.75 L 35.417969 33.75 C 37.027344 33.75 38.332031 32.445312 38.332031 30.832031 L 38.332031 9.167969 C 38.332031 7.554688 37.027344 6.25 35.417969 6.25 L 4.582031 6.25 C 2.972656 6.25 1.667969 7.554688 1.667969 9.167969 L 1.667969 30.832031 C 1.667969 32.445312 2.972656 33.75 4.582031 33.75 Z M 4.582031 33.75 "/>
<path style=" stroke:none;fill-rule:nonzero;fill:rgb(85.098039%,85.098039%,85.098039%);fill-opacity:1;" d="M 21.667969 33.75 L 35.417969 33.75 C 37.027344 33.75 38.332031 32.445312 38.332031 30.832031 L 38.332031 9.167969 C 38.332031 7.554688 37.027344 6.25 35.417969 6.25 L 4.582031 6.25 C 2.972656 6.25 1.667969 7.554688 1.667969 9.167969 Z M 21.667969 33.75 "/>
<path style=" stroke:none;fill-rule:nonzero;fill:rgb(93.333333%,93.333333%,93.333333%);fill-opacity:1;" d="M 5.621094 33.75 L 35.417969 33.75 C 37.027344 33.75 38.332031 32.445312 38.332031 30.832031 L 38.332031 9.582031 Z M 5.621094 33.75 "/>
<path style=" stroke:none;fill-rule:nonzero;fill:rgb(87.843137%,87.843137%,87.843137%);fill-opacity:1;" d="M 21.453125 33.75 L 35.417969 33.75 C 37.027344 33.75 38.332031 32.445312 38.332031 30.832031 L 38.332031 9.582031 L 15.640625 26.347656 Z M 21.453125 33.75 "/>
<path style=" stroke:none;fill-rule:nonzero;fill:rgb(79.215686%,21.568627%,21.568627%);fill-opacity:1;" d="M 35.417969 7.917969 L 4.582031 7.917969 C 2.972656 7.917969 1.667969 7.554688 1.667969 9.167969 L 1.667969 30.832031 C 1.667969 32.445312 2.972656 33.75 4.582031 33.75 L 5.832031 33.75 L 5.832031 10 L 34.167969 10 L 34.167969 33.75 L 35.417969 33.75 C 37.027344 33.75 38.332031 32.445312 38.332031 30.832031 L 38.332031 9.167969 C 38.332031 7.554688 37.027344 7.917969 35.417969 7.917969 Z M 35.417969 7.917969 "/>
<path style=" stroke:none;fill-rule:nonzero;fill:rgb(96.078431%,96.078431%,96.078431%);fill-opacity:1;" d="M 35.417969 6.25 L 4.582031 6.25 C 2.972656 6.25 1.667969 7.53125 1.667969 9.167969 C 1.667969 10.171875 2.933594 11.046875 2.933594 11.046875 L 20 23.128906 L 37.066406 11.050781 C 37.066406 11.050781 38.332031 10.171875 38.332031 9.167969 C 38.332031 7.53125 37.027344 6.25 35.417969 6.25 Z M 35.417969 6.25 "/>
<path style=" stroke:none;fill-rule:nonzero;fill:rgb(90.980392%,30.980392%,29.411765%);fill-opacity:1;" d="M 36.039062 6.316406 L 20 17.5 L 3.960938 6.316406 C 2.648438 6.597656 1.667969 7.746094 1.667969 9.167969 C 1.667969 10.171875 2.933594 11.046875 2.933594 11.046875 L 20 23.128906 L 37.066406 11.050781 C 37.066406 11.050781 38.332031 10.171875 38.332031 9.167969 C 38.332031 7.746094 37.351562 6.597656 36.039062 6.316406 Z M 36.039062 6.316406 "/>
</g>
</svg>
