<?xml version="1.0" encoding="UTF-8"?>
<svg xmlns="http://www.w3.org/2000/svg" xmlns:xlink="http://www.w3.org/1999/xlink" width="40px" height="40px" viewBox="0 0 40 40" version="1.1">
<g id="surface1">
<path style=" stroke:none;fill-rule:nonzero;fill:rgb(0%,40%,60%);fill-opacity:1;" d="M 0 2.933594 C 0 1.359375 1.324219 0.078125 2.957031 0.078125 L 37.042969 0.078125 C 38.675781 0.078125 40 1.359375 40 2.933594 L 40 37.066406 C 40 38.640625 38.675781 39.921875 37.042969 39.921875 L 2.957031 39.921875 C 1.324219 39.921875 0 38.640625 0 37.066406 Z M 0 2.933594 "/>
<path style=" stroke:none;fill-rule:nonzero;fill:rgb(100%,100%,100%);fill-opacity:1;" d="M 12.15625 33.421875 L 12.15625 15.484375 L 6.171875 15.484375 L 6.171875 33.421875 Z M 9.164062 13.035156 C 11.25 13.035156 12.550781 11.660156 12.550781 9.9375 C 12.511719 8.175781 11.25 6.839844 9.203125 6.839844 C 7.15625 6.839844 5.816406 8.175781 5.816406 9.9375 C 5.816406 11.660156 7.117188 13.035156 9.125 13.035156 Z M 15.46875 33.421875 L 21.453125 33.421875 L 21.453125 23.40625 C 21.453125 22.871094 21.492188 22.332031 21.652344 21.949219 C 22.082031 20.878906 23.070312 19.769531 24.722656 19.769531 C 26.886719 19.769531 27.753906 21.414062 27.753906 23.828125 L 27.753906 33.421875 L 33.738281 33.421875 L 33.738281 23.136719 C 33.738281 17.628906 30.785156 15.0625 26.847656 15.0625 C 23.621094 15.0625 22.203125 16.863281 21.414062 18.085938 L 21.453125 18.085938 L 21.453125 15.484375 L 15.46875 15.484375 C 15.546875 17.167969 15.46875 33.421875 15.46875 33.421875 Z M 15.46875 33.421875 "/>
</g>
</svg>
