<?xml version="1.0" encoding="UTF-8"?>
<svg xmlns="http://www.w3.org/2000/svg" xmlns:xlink="http://www.w3.org/1999/xlink" width="40px" height="40px" viewBox="0 0 40 40" version="1.1">
<g id="surface1">
<path style=" stroke:none;fill-rule:evenodd;fill:rgb(98.431373%,98.431373%,98.431373%);fill-opacity:1;" d="M 19.84375 5.519531 C 18.859375 5.574219 18.085938 5.679688 17.21875 5.882812 C 15.523438 6.273438 13.808594 7.039062 12.378906 8.039062 C 9.136719 10.3125 7 13.765625 6.445312 17.648438 C 6.351562 18.308594 6.324219 18.667969 6.3125 19.425781 C 6.292969 20.769531 6.417969 21.859375 6.730469 23.109375 C 7.035156 24.324219 7.46875 25.410156 8.136719 26.632812 L 8.1875 26.726562 L 7.1875 30.378906 C 6.640625 32.386719 6.191406 34.03125 6.195312 34.035156 C 6.199219 34.039062 7.589844 33.675781 9.289062 33.230469 C 10.984375 32.785156 12.664062 32.34375 13.023438 32.253906 L 13.671875 32.082031 L 14.175781 32.328125 C 14.722656 32.597656 14.804688 32.632812 15.246094 32.808594 C 16.183594 33.183594 17.230469 33.46875 18.261719 33.632812 C 19.417969 33.8125 20.730469 33.84375 21.953125 33.71875 C 24.152344 33.492188 26.351562 32.699219 28.222656 31.457031 C 30.113281 30.199219 31.617188 28.59375 32.738281 26.632812 C 34.179688 24.105469 34.808594 21.132812 34.511719 18.222656 C 34.257812 15.753906 33.40625 13.484375 31.976562 11.46875 C 31.25 10.441406 30.285156 9.417969 29.296875 8.625 C 27.113281 6.871094 24.527344 5.824219 21.738281 5.566406 C 21.1875 5.515625 20.320312 5.496094 19.84375 5.519531 M 20 7.914062 C 15.859375 8.054688 12.085938 10.410156 10.089844 14.097656 C 9.347656 15.464844 8.902344 16.945312 8.738281 18.59375 C 8.6875 19.078125 8.6875 20.242188 8.738281 20.722656 C 8.851562 21.863281 9.085938 22.871094 9.472656 23.875 C 9.753906 24.617188 10.066406 25.230469 10.542969 25.992188 L 10.765625 26.351562 L 10.175781 28.507812 C 9.851562 29.695312 9.585938 30.667969 9.59375 30.671875 C 9.601562 30.679688 10.242188 30.515625 12.828125 29.835938 C 13.46875 29.667969 14 29.53125 14.015625 29.53125 C 14.03125 29.53125 14.207031 29.628906 14.410156 29.746094 C 15.9375 30.648438 17.503906 31.167969 19.289062 31.359375 C 19.683594 31.402344 20.792969 31.417969 21.210938 31.386719 C 24.808594 31.136719 28.015625 29.320312 30.082031 26.371094 C 31.253906 24.699219 31.929688 22.839844 32.152344 20.695312 C 32.1875 20.367188 32.1875 18.957031 32.152344 18.613281 C 31.886719 15.890625 30.828125 13.546875 28.96875 11.5625 C 27.796875 10.3125 26.234375 9.273438 24.617188 8.664062 C 23.144531 8.105469 21.613281 7.855469 20 7.914062 M 15.15625 13.15625 C 15.097656 13.171875 14.972656 13.21875 14.882812 13.265625 C 14.738281 13.335938 14.6875 13.375 14.492188 13.570312 C 13.8125 14.253906 13.457031 14.925781 13.308594 15.800781 C 13.261719 16.097656 13.25 16.675781 13.289062 16.988281 C 13.398438 17.839844 13.804688 18.847656 14.402344 19.734375 C 15.425781 21.265625 16.578125 22.585938 17.765625 23.597656 C 19.175781 24.796875 20.457031 25.492188 22.460938 26.148438 C 23.21875 26.394531 23.4375 26.433594 24.121094 26.433594 C 24.859375 26.433594 25.125 26.390625 25.644531 26.171875 C 26.21875 25.925781 26.855469 25.46875 27.140625 25.089844 C 27.320312 24.851562 27.46875 24.453125 27.558594 23.957031 C 27.613281 23.671875 27.628906 23.289062 27.597656 23.132812 C 27.554688 22.925781 27.621094 22.964844 25.917969 22.132812 C 24.699219 21.539062 24.292969 21.367188 24.101562 21.367188 C 23.941406 21.367188 23.800781 21.46875 23.640625 21.695312 C 23.445312 21.972656 22.683594 22.902344 22.511719 23.074219 C 22.359375 23.226562 22.179688 23.257812 21.953125 23.175781 C 21.792969 23.117188 21.210938 22.851562 20.925781 22.710938 C 19.390625 21.9375 18.070312 20.683594 17.074219 19.054688 C 16.933594 18.820312 16.882812 18.683594 16.902344 18.570312 C 16.921875 18.453125 16.953125 18.402344 17.171875 18.160156 C 17.65625 17.621094 17.898438 17.289062 18.03125 16.972656 C 18.082031 16.847656 18.089844 16.8125 18.082031 16.679688 C 18.074219 16.550781 18.058594 16.5 17.949219 16.25 C 17.882812 16.09375 17.621094 15.464844 17.371094 14.851562 C 17.117188 14.242188 16.875 13.667969 16.832031 13.578125 C 16.742188 13.398438 16.613281 13.25 16.484375 13.179688 C 16.398438 13.136719 16.382812 13.132812 15.828125 13.128906 C 15.378906 13.125 15.242188 13.132812 15.15625 13.15625 "/>
<path style=" stroke:none;fill-rule:evenodd;fill:rgb(25.490196%,90.588235%,37.647059%);fill-opacity:1;" d="M 8.78125 0.136719 C 8.671875 0.148438 8.363281 0.167969 8.09375 0.183594 C 7.828125 0.199219 7.570312 0.222656 7.53125 0.234375 C 7.484375 0.242188 7.375 0.253906 7.285156 0.253906 C 7.195312 0.253906 7.078125 0.265625 7.03125 0.277344 C 6.984375 0.285156 6.878906 0.304688 6.796875 0.316406 C 6.714844 0.324219 6.617188 0.347656 6.578125 0.363281 C 6.535156 0.378906 6.46875 0.390625 6.429688 0.390625 C 6.390625 0.390625 6.339844 0.402344 6.316406 0.417969 C 6.296875 0.433594 6.234375 0.449219 6.179688 0.457031 C 6.121094 0.464844 6.050781 0.484375 6.023438 0.5 C 5.992188 0.515625 5.941406 0.527344 5.90625 0.527344 C 5.875 0.527344 5.832031 0.539062 5.808594 0.554688 C 5.789062 0.570312 5.75 0.585938 5.722656 0.585938 C 5.695312 0.585938 5.640625 0.605469 5.59375 0.625 C 5.554688 0.644531 5.5 0.664062 5.476562 0.664062 C 5.457031 0.664062 5.421875 0.675781 5.398438 0.691406 C 5.378906 0.707031 5.34375 0.722656 5.320312 0.722656 C 5.300781 0.722656 5.25 0.742188 5.203125 0.761719 C 5.164062 0.78125 5.117188 0.800781 5.105469 0.800781 C 5.082031 0.800781 5.046875 0.816406 4.878906 0.902344 C 4.839844 0.921875 4.792969 0.9375 4.777344 0.9375 C 4.761719 0.9375 4.738281 0.949219 4.726562 0.96875 C 4.714844 0.984375 4.6875 0.996094 4.667969 0.996094 C 4.648438 0.996094 4.621094 1.007812 4.605469 1.023438 C 4.589844 1.039062 4.558594 1.054688 4.53125 1.0625 C 4.503906 1.074219 4.472656 1.085938 4.460938 1.097656 C 4.441406 1.113281 4.359375 1.15625 4.175781 1.253906 C 4.132812 1.277344 4.101562 1.300781 4.101562 1.304688 C 4.101562 1.3125 4.078125 1.328125 4.046875 1.34375 C 3.992188 1.367188 3.976562 1.375 3.824219 1.480469 C 3.773438 1.515625 3.726562 1.542969 3.71875 1.542969 C 3.710938 1.542969 3.667969 1.574219 3.621094 1.609375 C 3.574219 1.648438 3.527344 1.679688 3.515625 1.679688 C 3.503906 1.679688 3.496094 1.6875 3.496094 1.695312 C 3.496094 1.703125 3.453125 1.742188 3.398438 1.777344 C 3.34375 1.808594 3.300781 1.847656 3.300781 1.855469 C 3.300781 1.867188 3.289062 1.875 3.273438 1.875 C 3.257812 1.875 3.238281 1.886719 3.226562 1.898438 C 3.21875 1.914062 3.148438 1.976562 3.066406 2.042969 C 2.90625 2.171875 2.335938 2.734375 2.222656 2.871094 C 2.152344 2.960938 2.09375 3.03125 2.046875 3.085938 C 2.007812 3.128906 1.867188 3.3125 1.835938 3.359375 C 1.820312 3.382812 1.796875 3.414062 1.789062 3.425781 C 1.757812 3.460938 1.601562 3.691406 1.601562 3.703125 C 1.601562 3.714844 1.523438 3.828125 1.488281 3.863281 C 1.476562 3.878906 1.464844 3.90625 1.464844 3.925781 C 1.464844 3.949219 1.457031 3.964844 1.445312 3.964844 C 1.433594 3.964844 1.417969 3.984375 1.40625 4.007812 C 1.394531 4.03125 1.367188 4.085938 1.339844 4.132812 C 1.257812 4.265625 1.191406 4.398438 1.191406 4.421875 C 1.191406 4.4375 1.179688 4.453125 1.164062 4.460938 C 1.144531 4.464844 1.132812 4.484375 1.132812 4.503906 C 1.132812 4.519531 1.117188 4.566406 1.09375 4.605469 C 1.074219 4.644531 1.046875 4.707031 1.027344 4.746094 C 1.011719 4.785156 0.980469 4.855469 0.960938 4.90625 C 0.9375 4.953125 0.917969 5.007812 0.917969 5.023438 C 0.917969 5.035156 0.902344 5.066406 0.886719 5.085938 C 0.871094 5.109375 0.859375 5.140625 0.859375 5.160156 C 0.859375 5.179688 0.84375 5.226562 0.820312 5.269531 C 0.796875 5.308594 0.78125 5.359375 0.78125 5.378906 C 0.78125 5.402344 0.765625 5.4375 0.75 5.457031 C 0.734375 5.480469 0.722656 5.523438 0.722656 5.554688 C 0.722656 5.589844 0.710938 5.632812 0.695312 5.65625 C 0.679688 5.675781 0.664062 5.730469 0.65625 5.777344 C 0.648438 5.824219 0.628906 5.886719 0.613281 5.914062 C 0.597656 5.941406 0.585938 6.003906 0.585938 6.046875 C 0.585938 6.089844 0.574219 6.136719 0.558594 6.148438 C 0.542969 6.164062 0.527344 6.226562 0.519531 6.289062 C 0.511719 6.351562 0.492188 6.429688 0.476562 6.460938 C 0.460938 6.488281 0.449219 6.566406 0.449219 6.632812 C 0.449219 6.699219 0.4375 6.78125 0.421875 6.808594 C 0.40625 6.84375 0.382812 6.972656 0.375 7.117188 C 0.363281 7.257812 0.34375 7.421875 0.335938 7.480469 C 0.324219 7.539062 0.316406 7.730469 0.3125 7.902344 C 0.3125 8.140625 0.304688 8.25 0.277344 8.34375 C 0.246094 8.460938 0.242188 9.074219 0.242188 19.980469 C 0.242188 29.652344 0.25 31.511719 0.269531 31.601562 C 0.285156 31.660156 0.304688 31.886719 0.3125 32.109375 C 0.320312 32.328125 0.335938 32.53125 0.347656 32.558594 C 0.359375 32.585938 0.375 32.71875 0.382812 32.851562 C 0.390625 32.992188 0.40625 33.121094 0.421875 33.152344 C 0.4375 33.183594 0.449219 33.257812 0.449219 33.320312 C 0.449219 33.378906 0.460938 33.453125 0.476562 33.480469 C 0.492188 33.511719 0.511719 33.589844 0.519531 33.652344 C 0.527344 33.714844 0.542969 33.777344 0.558594 33.792969 C 0.574219 33.804688 0.585938 33.851562 0.585938 33.894531 C 0.585938 33.9375 0.597656 34 0.613281 34.027344 C 0.628906 34.058594 0.648438 34.121094 0.65625 34.167969 C 0.664062 34.21875 0.679688 34.265625 0.695312 34.277344 C 0.710938 34.292969 0.722656 34.335938 0.722656 34.375 C 0.722656 34.414062 0.734375 34.457031 0.75 34.46875 C 0.765625 34.484375 0.78125 34.527344 0.789062 34.574219 C 0.796875 34.617188 0.816406 34.671875 0.832031 34.695312 C 0.847656 34.71875 0.859375 34.753906 0.859375 34.777344 C 0.859375 34.796875 0.871094 34.832031 0.886719 34.855469 C 0.902344 34.875 0.917969 34.90625 0.917969 34.921875 C 0.917969 34.9375 0.9375 34.984375 0.957031 35.023438 C 0.976562 35.066406 0.996094 35.109375 0.996094 35.125 C 0.996094 35.140625 1.007812 35.164062 1.023438 35.179688 C 1.039062 35.195312 1.054688 35.234375 1.0625 35.269531 C 1.070312 35.300781 1.089844 35.339844 1.105469 35.351562 C 1.121094 35.367188 1.132812 35.390625 1.132812 35.410156 C 1.132812 35.429688 1.144531 35.453125 1.160156 35.46875 C 1.175781 35.480469 1.195312 35.515625 1.203125 35.546875 C 1.207031 35.578125 1.222656 35.605469 1.230469 35.605469 C 1.238281 35.605469 1.257812 35.636719 1.269531 35.671875 C 1.28125 35.710938 1.300781 35.742188 1.308594 35.742188 C 1.320312 35.742188 1.328125 35.753906 1.328125 35.765625 C 1.328125 35.78125 1.355469 35.835938 1.390625 35.890625 C 1.425781 35.941406 1.464844 36.007812 1.480469 36.035156 C 1.511719 36.097656 1.546875 36.152344 1.578125 36.1875 C 1.589844 36.203125 1.601562 36.222656 1.601562 36.230469 C 1.601562 36.238281 1.613281 36.257812 1.625 36.273438 C 1.640625 36.289062 1.675781 36.339844 1.707031 36.386719 C 1.765625 36.472656 2.054688 36.859375 2.101562 36.914062 C 2.117188 36.929688 2.160156 36.980469 2.203125 37.03125 C 2.441406 37.308594 2.945312 37.808594 3.09375 37.90625 C 3.117188 37.925781 3.140625 37.949219 3.148438 37.960938 C 3.160156 37.976562 3.179688 37.988281 3.191406 37.988281 C 3.207031 37.988281 3.222656 37.996094 3.226562 38.007812 C 3.230469 38.023438 3.285156 38.0625 3.484375 38.21875 C 3.496094 38.226562 3.546875 38.257812 3.59375 38.289062 C 3.640625 38.324219 3.6875 38.355469 3.691406 38.359375 C 3.707031 38.375 3.878906 38.488281 4.070312 38.609375 C 4.09375 38.621094 4.136719 38.644531 4.171875 38.664062 C 4.203125 38.679688 4.253906 38.710938 4.289062 38.730469 C 4.355469 38.773438 4.769531 38.980469 4.902344 39.039062 C 4.949219 39.058594 5.023438 39.089844 5.0625 39.109375 C 5.101562 39.125 5.144531 39.140625 5.164062 39.140625 C 5.179688 39.140625 5.199219 39.148438 5.203125 39.160156 C 5.210938 39.171875 5.253906 39.1875 5.296875 39.199219 C 5.34375 39.210938 5.410156 39.234375 5.441406 39.25 C 5.476562 39.265625 5.519531 39.277344 5.535156 39.277344 C 5.554688 39.277344 5.585938 39.289062 5.609375 39.304688 C 5.636719 39.320312 5.691406 39.339844 5.738281 39.34375 C 5.78125 39.351562 5.824219 39.367188 5.832031 39.375 C 5.835938 39.382812 5.882812 39.398438 5.929688 39.40625 C 5.980469 39.414062 6.042969 39.429688 6.070312 39.445312 C 6.101562 39.460938 6.152344 39.472656 6.191406 39.472656 C 6.230469 39.472656 6.285156 39.484375 6.316406 39.5 C 6.34375 39.515625 6.414062 39.535156 6.472656 39.542969 C 6.527344 39.546875 6.605469 39.566406 6.644531 39.582031 C 6.6875 39.597656 6.761719 39.609375 6.8125 39.609375 C 6.867188 39.609375 6.949219 39.621094 7 39.636719 C 7.050781 39.652344 7.210938 39.671875 7.359375 39.679688 C 7.507812 39.6875 7.648438 39.699219 7.675781 39.710938 C 7.828125 39.769531 8.8125 39.773438 20.070312 39.773438 C 31.371094 39.773438 32.222656 39.769531 32.441406 39.710938 C 32.480469 39.699219 32.617188 39.683594 32.746094 39.679688 C 32.875 39.671875 33.023438 39.652344 33.078125 39.636719 C 33.128906 39.621094 33.214844 39.609375 33.269531 39.609375 C 33.324219 39.609375 33.390625 39.597656 33.417969 39.582031 C 33.445312 39.570312 33.519531 39.550781 33.578125 39.542969 C 33.636719 39.539062 33.71875 39.519531 33.757812 39.503906 C 33.796875 39.484375 33.855469 39.472656 33.890625 39.472656 C 33.925781 39.472656 33.972656 39.460938 33.996094 39.445312 C 34.015625 39.433594 34.074219 39.414062 34.121094 39.40625 C 34.171875 39.402344 34.238281 39.382812 34.269531 39.367188 C 34.300781 39.351562 34.347656 39.335938 34.378906 39.335938 C 34.40625 39.335938 34.441406 39.324219 34.453125 39.304688 C 34.464844 39.289062 34.5 39.277344 34.527344 39.277344 C 34.558594 39.277344 34.617188 39.257812 34.65625 39.238281 C 34.703125 39.21875 34.75 39.199219 34.765625 39.199219 C 34.785156 39.199219 34.8125 39.1875 34.835938 39.171875 C 34.855469 39.15625 34.886719 39.140625 34.90625 39.140625 C 34.925781 39.140625 34.972656 39.125 35.015625 39.101562 C 35.054688 39.078125 35.101562 39.0625 35.121094 39.0625 C 35.136719 39.0625 35.164062 39.050781 35.175781 39.03125 C 35.1875 39.015625 35.210938 39.003906 35.226562 39.003906 C 35.25 39.003906 35.367188 38.953125 35.449219 38.90625 C 35.464844 38.898438 35.558594 38.847656 35.65625 38.796875 C 35.75 38.746094 35.835938 38.699219 35.839844 38.695312 C 35.855469 38.675781 35.957031 38.617188 36.019531 38.59375 C 36.050781 38.582031 36.074219 38.5625 36.074219 38.554688 C 36.074219 38.542969 36.082031 38.535156 36.09375 38.535156 C 36.109375 38.535156 36.234375 38.460938 36.285156 38.417969 C 36.296875 38.40625 36.316406 38.398438 36.328125 38.398438 C 36.339844 38.398438 36.355469 38.386719 36.359375 38.367188 C 36.367188 38.351562 36.382812 38.339844 36.394531 38.339844 C 36.40625 38.339844 36.4375 38.320312 36.460938 38.300781 C 36.484375 38.28125 36.507812 38.261719 36.511719 38.261719 C 36.519531 38.261719 36.792969 38.054688 36.914062 37.953125 C 37.058594 37.839844 37.324219 37.597656 37.460938 37.460938 C 37.664062 37.257812 37.929688 36.960938 37.929688 36.941406 C 37.929688 36.933594 37.941406 36.917969 37.957031 36.90625 C 38.027344 36.847656 38.398438 36.34375 38.398438 36.308594 C 38.398438 36.296875 38.40625 36.289062 38.417969 36.289062 C 38.429688 36.289062 38.449219 36.265625 38.460938 36.234375 C 38.476562 36.207031 38.496094 36.171875 38.511719 36.15625 C 38.523438 36.140625 38.535156 36.117188 38.535156 36.101562 C 38.535156 36.085938 38.542969 36.074219 38.550781 36.074219 C 38.5625 36.074219 38.582031 36.046875 38.59375 36.015625 C 38.605469 35.984375 38.625 35.957031 38.632812 35.957031 C 38.640625 35.957031 38.65625 35.929688 38.664062 35.898438 C 38.667969 35.867188 38.683594 35.839844 38.691406 35.839844 C 38.699219 35.839844 38.734375 35.785156 38.769531 35.71875 C 38.832031 35.59375 38.851562 35.554688 38.886719 35.492188 C 38.898438 35.472656 38.917969 35.4375 38.929688 35.410156 C 38.941406 35.382812 38.957031 35.347656 38.96875 35.332031 C 38.976562 35.316406 38.988281 35.289062 38.996094 35.273438 C 39.003906 35.257812 39.023438 35.207031 39.042969 35.164062 C 39.066406 35.121094 39.082031 35.074219 39.082031 35.058594 C 39.082031 35.046875 39.09375 35.023438 39.109375 35.007812 C 39.128906 34.992188 39.140625 34.960938 39.140625 34.941406 C 39.140625 34.917969 39.15625 34.871094 39.179688 34.828125 C 39.203125 34.789062 39.21875 34.738281 39.21875 34.71875 C 39.21875 34.695312 39.234375 34.660156 39.25 34.640625 C 39.265625 34.617188 39.277344 34.578125 39.277344 34.550781 C 39.277344 34.519531 39.289062 34.488281 39.304688 34.472656 C 39.320312 34.460938 39.335938 34.410156 39.34375 34.359375 C 39.351562 34.308594 39.371094 34.25 39.386719 34.230469 C 39.402344 34.207031 39.414062 34.160156 39.414062 34.121094 C 39.414062 34.082031 39.425781 34.035156 39.441406 34.011719 C 39.457031 33.992188 39.472656 33.929688 39.480469 33.878906 C 39.488281 33.824219 39.507812 33.757812 39.523438 33.726562 C 39.539062 33.699219 39.550781 33.632812 39.550781 33.578125 C 39.550781 33.527344 39.5625 33.472656 39.574219 33.460938 C 39.585938 33.449219 39.605469 33.363281 39.621094 33.265625 C 39.632812 33.171875 39.652344 33.0625 39.664062 33.015625 C 39.675781 32.976562 39.6875 32.851562 39.6875 32.742188 C 39.6875 32.632812 39.699219 32.515625 39.714844 32.46875 C 39.730469 32.421875 39.746094 32.246094 39.753906 31.984375 C 39.761719 31.742188 39.773438 31.539062 39.789062 31.492188 C 39.828125 31.378906 39.824219 8.484375 39.789062 8.367188 C 39.773438 8.324219 39.761719 8.136719 39.753906 7.910156 C 39.746094 7.679688 39.730469 7.492188 39.714844 7.429688 C 39.703125 7.378906 39.6875 7.226562 39.683594 7.101562 C 39.679688 6.96875 39.664062 6.847656 39.652344 6.820312 C 39.640625 6.796875 39.621094 6.714844 39.617188 6.632812 C 39.609375 6.546875 39.59375 6.476562 39.578125 6.460938 C 39.5625 6.449219 39.550781 6.402344 39.550781 6.339844 C 39.550781 6.285156 39.539062 6.21875 39.523438 6.1875 C 39.507812 6.160156 39.492188 6.09375 39.484375 6.042969 C 39.476562 5.992188 39.457031 5.929688 39.441406 5.902344 C 39.425781 5.878906 39.414062 5.832031 39.414062 5.796875 C 39.414062 5.761719 39.402344 5.714844 39.386719 5.691406 C 39.371094 5.671875 39.351562 5.613281 39.34375 5.5625 C 39.335938 5.511719 39.320312 5.460938 39.304688 5.449219 C 39.289062 5.433594 39.277344 5.402344 39.277344 5.375 C 39.277344 5.34375 39.265625 5.304688 39.25 5.28125 C 39.234375 5.261719 39.21875 5.210938 39.210938 5.171875 C 39.203125 5.132812 39.183594 5.089844 39.167969 5.078125 C 39.152344 5.066406 39.140625 5.03125 39.140625 5 C 39.140625 4.96875 39.128906 4.933594 39.109375 4.921875 C 39.09375 4.910156 39.082031 4.882812 39.082031 4.867188 C 39.082031 4.839844 39.019531 4.695312 38.980469 4.628906 C 38.972656 4.613281 38.960938 4.585938 38.953125 4.570312 C 38.9375 4.523438 38.910156 4.464844 38.886719 4.429688 C 38.859375 4.378906 38.839844 4.339844 38.777344 4.21875 C 38.746094 4.160156 38.714844 4.109375 38.707031 4.105469 C 38.699219 4.101562 38.667969 4.042969 38.628906 3.972656 C 38.59375 3.90625 38.558594 3.847656 38.550781 3.847656 C 38.542969 3.847656 38.535156 3.839844 38.535156 3.828125 C 38.535156 3.816406 38.503906 3.765625 38.46875 3.710938 C 38.429688 3.65625 38.398438 3.605469 38.398438 3.59375 C 38.398438 3.582031 38.386719 3.566406 38.367188 3.5625 C 38.351562 3.554688 38.339844 3.539062 38.339844 3.527344 C 38.339844 3.515625 38.320312 3.484375 38.300781 3.460938 C 38.28125 3.4375 38.261719 3.410156 38.261719 3.398438 C 38.261719 3.386719 38.25 3.371094 38.234375 3.367188 C 38.214844 3.359375 38.203125 3.347656 38.203125 3.335938 C 38.203125 3.3125 38.03125 3.097656 38.003906 3.089844 C 37.996094 3.085938 37.988281 3.070312 37.988281 3.054688 C 37.988281 3.042969 37.976562 3.023438 37.964844 3.015625 C 37.949219 3.003906 37.90625 2.957031 37.863281 2.902344 C 37.820312 2.851562 37.722656 2.742188 37.648438 2.664062 C 37.570312 2.585938 37.488281 2.5 37.457031 2.46875 C 37.367188 2.367188 37.035156 2.066406 36.898438 1.964844 C 36.882812 1.953125 36.859375 1.929688 36.839844 1.914062 C 36.75 1.832031 36.621094 1.738281 36.601562 1.738281 C 36.589844 1.738281 36.574219 1.726562 36.570312 1.710938 C 36.5625 1.691406 36.546875 1.679688 36.535156 1.679688 C 36.519531 1.679688 36.492188 1.664062 36.476562 1.640625 C 36.457031 1.617188 36.425781 1.601562 36.414062 1.601562 C 36.398438 1.601562 36.378906 1.589844 36.375 1.570312 C 36.367188 1.554688 36.355469 1.542969 36.34375 1.542969 C 36.335938 1.542969 36.285156 1.515625 36.234375 1.480469 C 36.097656 1.386719 36.070312 1.371094 36.015625 1.34375 C 35.988281 1.328125 35.960938 1.3125 35.957031 1.304688 C 35.945312 1.292969 35.859375 1.242188 35.6875 1.152344 C 35.652344 1.132812 35.613281 1.109375 35.601562 1.097656 C 35.585938 1.085938 35.554688 1.074219 35.527344 1.0625 C 35.5 1.054688 35.46875 1.039062 35.453125 1.023438 C 35.4375 1.007812 35.410156 0.996094 35.390625 0.996094 C 35.371094 0.996094 35.34375 0.984375 35.332031 0.96875 C 35.320312 0.949219 35.296875 0.9375 35.28125 0.9375 C 35.265625 0.9375 35.222656 0.921875 35.179688 0.898438 C 35.140625 0.875 35.09375 0.859375 35.074219 0.859375 C 35.058594 0.859375 35.03125 0.847656 35.019531 0.828125 C 35.007812 0.8125 34.980469 0.800781 34.957031 0.800781 C 34.9375 0.800781 34.890625 0.78125 34.847656 0.761719 C 34.808594 0.742188 34.757812 0.722656 34.738281 0.722656 C 34.714844 0.722656 34.679688 0.707031 34.660156 0.691406 C 34.636719 0.675781 34.601562 0.664062 34.582031 0.664062 C 34.558594 0.664062 34.515625 0.652344 34.488281 0.636719 C 34.457031 0.621094 34.398438 0.601562 34.359375 0.59375 C 34.320312 0.585938 34.269531 0.570312 34.25 0.554688 C 34.226562 0.539062 34.1875 0.527344 34.160156 0.527344 C 34.132812 0.527344 34.058594 0.507812 34 0.488281 C 33.9375 0.46875 33.867188 0.449219 33.839844 0.449219 C 33.816406 0.449219 33.769531 0.4375 33.738281 0.421875 C 33.707031 0.402344 33.648438 0.390625 33.609375 0.390625 C 33.570312 0.390625 33.503906 0.378906 33.460938 0.363281 C 33.421875 0.347656 33.324219 0.324219 33.242188 0.316406 C 33.160156 0.304688 33.054688 0.285156 33.007812 0.277344 C 32.960938 0.265625 32.851562 0.253906 32.765625 0.253906 C 32.679688 0.253906 32.566406 0.242188 32.519531 0.234375 C 32.472656 0.222656 32.203125 0.199219 31.921875 0.183594 C 31.644531 0.167969 31.316406 0.148438 31.191406 0.136719 C 30.917969 0.117188 9.0625 0.117188 8.78125 0.136719 M 19.84375 5.519531 C 18.859375 5.574219 18.085938 5.679688 17.21875 5.882812 C 15.523438 6.273438 13.808594 7.039062 12.378906 8.039062 C 9.136719 10.3125 7 13.765625 6.445312 17.648438 C 6.351562 18.308594 6.324219 18.667969 6.3125 19.425781 C 6.292969 20.769531 6.417969 21.859375 6.730469 23.109375 C 7.035156 24.324219 7.46875 25.410156 8.136719 26.632812 L 8.1875 26.726562 L 7.1875 30.378906 C 6.640625 32.386719 6.191406 34.03125 6.195312 34.035156 C 6.199219 34.039062 7.589844 33.675781 9.289062 33.230469 C 10.984375 32.785156 12.664062 32.34375 13.023438 32.253906 L 13.671875 32.082031 L 14.175781 32.328125 C 14.722656 32.597656 14.804688 32.632812 15.246094 32.808594 C 16.183594 33.183594 17.230469 33.46875 18.261719 33.632812 C 19.417969 33.8125 20.730469 33.84375 21.953125 33.71875 C 24.152344 33.492188 26.351562 32.699219 28.222656 31.457031 C 30.113281 30.199219 31.617188 28.59375 32.738281 26.632812 C 34.179688 24.105469 34.808594 21.132812 34.511719 18.222656 C 34.257812 15.753906 33.40625 13.484375 31.976562 11.46875 C 31.25 10.441406 30.285156 9.417969 29.296875 8.625 C 27.113281 6.871094 24.527344 5.824219 21.738281 5.566406 C 21.1875 5.515625 20.320312 5.496094 19.84375 5.519531 M 20 7.914062 C 15.859375 8.054688 12.085938 10.410156 10.089844 14.097656 C 9.347656 15.464844 8.902344 16.945312 8.738281 18.59375 C 8.6875 19.078125 8.6875 20.242188 8.738281 20.722656 C 8.851562 21.863281 9.085938 22.871094 9.472656 23.875 C 9.753906 24.617188 10.066406 25.230469 10.542969 25.992188 L 10.765625 26.351562 L 10.175781 28.507812 C 9.851562 29.695312 9.585938 30.667969 9.59375 30.671875 C 9.601562 30.679688 10.242188 30.515625 12.828125 29.835938 C 13.46875 29.667969 14 29.53125 14.015625 29.53125 C 14.03125 29.53125 14.207031 29.628906 14.410156 29.746094 C 15.9375 30.648438 17.503906 31.167969 19.289062 31.359375 C 19.683594 31.402344 20.792969 31.417969 21.210938 31.386719 C 24.808594 31.136719 28.015625 29.320312 30.082031 26.371094 C 31.253906 24.699219 31.929688 22.839844 32.152344 20.695312 C 32.1875 20.367188 32.1875 18.957031 32.152344 18.613281 C 31.886719 15.890625 30.828125 13.546875 28.96875 11.5625 C 27.796875 10.3125 26.234375 9.273438 24.617188 8.664062 C 23.144531 8.105469 21.613281 7.855469 20 7.914062 M 15.15625 13.15625 C 15.097656 13.171875 14.972656 13.21875 14.882812 13.265625 C 14.738281 13.335938 14.6875 13.375 14.492188 13.570312 C 13.8125 14.253906 13.457031 14.925781 13.308594 15.800781 C 13.261719 16.097656 13.25 16.675781 13.289062 16.988281 C 13.398438 17.839844 13.804688 18.847656 14.402344 19.734375 C 15.425781 21.265625 16.578125 22.585938 17.765625 23.597656 C 19.175781 24.796875 20.457031 25.492188 22.460938 26.148438 C 23.21875 26.394531 23.4375 26.433594 24.121094 26.433594 C 24.859375 26.433594 25.125 26.390625 25.644531 26.171875 C 26.21875 25.925781 26.855469 25.46875 27.140625 25.089844 C 27.320312 24.851562 27.46875 24.453125 27.558594 23.957031 C 27.613281 23.671875 27.628906 23.289062 27.597656 23.132812 C 27.554688 22.925781 27.621094 22.964844 25.917969 22.132812 C 24.699219 21.539062 24.292969 21.367188 24.101562 21.367188 C 23.941406 21.367188 23.800781 21.46875 23.640625 21.695312 C 23.445312 21.972656 22.683594 22.902344 22.511719 23.074219 C 22.359375 23.226562 22.179688 23.257812 21.953125 23.175781 C 21.792969 23.117188 21.210938 22.851562 20.925781 22.710938 C 19.390625 21.9375 18.070312 20.683594 17.074219 19.054688 C 16.933594 18.820312 16.882812 18.683594 16.902344 18.570312 C 16.921875 18.453125 16.953125 18.402344 17.171875 18.160156 C 17.65625 17.621094 17.898438 17.289062 18.03125 16.972656 C 18.082031 16.847656 18.089844 16.8125 18.082031 16.679688 C 18.074219 16.550781 18.058594 16.5 17.949219 16.25 C 17.882812 16.09375 17.621094 15.464844 17.371094 14.851562 C 17.117188 14.242188 16.875 13.667969 16.832031 13.578125 C 16.742188 13.398438 16.613281 13.25 16.484375 13.179688 C 16.398438 13.136719 16.382812 13.132812 15.828125 13.128906 C 15.378906 13.125 15.242188 13.132812 15.15625 13.15625 "/>
</g>
</svg>
